# xmcd CD database file
#
# Track frame offsets:
#	150
#	10257
#	21682
#	44105
#	62972
#	80782
#	91497
#	103037
#	119697
#	132932
#	146890
#	156420
#	166117
#
# Disc length: 2551 seconds
#
# Revision: 0
# Processed by: cddbd v1.5PL3 Copyright (c) Steve Scherf et al.
# Submitted via: CDex 1.50beta10
#
DISCID=c609f50d
DTITLE=James Cotton - Dealin' With The Devil
DYEAR=1996
DGENRE=Blues
TTITLE0=I Need You So Bad
TTITLE1=Don't Start Me Talking
TTITLE2=Dealin' With The Devil
TTITLE3=The Creeper
TTITLE4=V8 Ford Blues
TTITLE5=Turn On Your Lovelight
TTITLE6=Southside Boogie
TTITLE7=There Is Something On Your Mind
TTITLE8=Knock On Wood
TTITLE9=So Glad You're Mine
TTITLE10=Diggin' My Potatoes
TTITLE11=You Know It Ain't Right
TTITLE12=Jelly Jelly
EXTD=YEAR: 1996
EXTT0=
EXTT1=
EXTT2=
EXTT3=
EXTT4=
EXTT5=
EXTT6=
EXTT7=
EXTT8=
EXTT9=
EXTT10=
EXTT11=
EXTT12=
PLAYORDER=
